HIERARCHY
ROOT Hips
{
	OFFSET -0.001795 -0.223333 0.028219
	CHANNELS 6 Xposition Yposition Zposition Zrotation Yrotation Xrotation 
	JOINT LeftUpLeg
	{
		OFFSET 0.069520 -0.091406 -0.006815
		CHANNELS 3 Zrotation Yrotation Xrotation
		JOINT LeftLeg
		{
			OFFSET 0.034277 -0.375199 -0.004496
			CHANNELS 3 Zrotation Yrotation Xrotation
			JOINT LeftFoot
			{
				OFFSET -0.013596 -0.397961 -0.043693
				CHANNELS 3 Zrotation Yrotation Xrotation
				JOINT LeftToe
				{
					OFFSET 0.026358 -0.055791 0.119288
					CHANNELS 3 Zrotation Yrotation Xrotation
					End Site
					{
						OFFSET 0.000000 0.000000 0.000000
					}
				}
			}
		}
	}
	JOINT RightUpLeg
	{
		OFFSET -0.067670 -0.090522 -0.004320
		CHANNELS 3 Zrotation Yrotation Xrotation
		JOINT RightLeg
		{
			OFFSET -0.038290 -0.382569 -0.008850
			CHANNELS 3 Zrotation Yrotation Xrotation
			JOINT RightFoot
			{
				OFFSET 0.015774 -0.398415 -0.042312
				CHANNELS 3 Zrotation Yrotation Xrotation
				JOINT RightToe
				{
					OFFSET -0.025372 -0.048144 0.123348
					CHANNELS 3 Zrotation Yrotation Xrotation
					End Site
					{
						OFFSET 0.000000 0.000000 0.000000
					}
				}
			}
		}
	}
	JOINT Spine
	{
		OFFSET -0.002533 0.108963 -0.026696
		CHANNELS 3 Zrotation Yrotation Xrotation
		JOINT Spine1
		{
			OFFSET 0.005487 0.135180 0.001092
			CHANNELS 3 Zrotation Yrotation Xrotation
			JOINT Spine2
			{
				OFFSET 0.001457 0.052922 0.025425
				CHANNELS 3 Zrotation Yrotation Xrotation
				JOINT Neck
				{
					OFFSET -0.002778 0.213870 -0.042857
					CHANNELS 3 Zrotation Yrotation Xrotation
					JOINT Head
					{
						OFFSET 0.005152 0.064970 0.051349
						CHANNELS 3 Zrotation Yrotation Xrotation
						End Site
						{
							OFFSET 0.000000 0.000000 0.000000
						}
					}
				}
				JOINT LeftShoulder
				{
					OFFSET 0.078845 0.121749 -0.034090
					CHANNELS 3 Zrotation Yrotation Xrotation
					JOINT LeftArm
					{
						OFFSET 0.090977 0.030469 -0.008868
						CHANNELS 3 Zrotation Yrotation Xrotation
						JOINT LeftForeArm
						{
							OFFSET 0.259612 -0.012772 -0.027456
							CHANNELS 3 Zrotation Yrotation Xrotation
							JOINT LeftHand
							{
								OFFSET 0.249234 0.008986 -0.001171
								CHANNELS 3 Zrotation Yrotation Xrotation
								End Site
								{
									OFFSET 0.000000 0.000000 0.000000
								}
							}
						}
					}
				}
				JOINT RightShoulder
				{
					OFFSET -0.081759 0.118833 -0.038615
					CHANNELS 3 Zrotation Yrotation Xrotation
					JOINT RightArm
					{
						OFFSET -0.096012 0.032551 -0.009143
						CHANNELS 3 Zrotation Yrotation Xrotation
						JOINT RightForeArm
						{
							OFFSET -0.253742 -0.013329 -0.021401
							CHANNELS 3 Zrotation Yrotation Xrotation
							JOINT RightHand
							{
								OFFSET -0.255298 0.007772 -0.005559
								CHANNELS 3 Zrotation Yrotation Xrotation
								End Site
								{
									OFFSET 0.000000 0.000000 0.000000
								}
							}
						}
					}
				}
			}
		}
	}
}
MOTION
Frames: 13
Frame Time: 0.05000000
-17.780207 0.872437 5.821126 32.250806 -79.950364 23.487363 -15.639936 -0.533831 -41.601213 -1.318458 0.351590 -0.356416 -0.007724 8.149708 -26.093813 0.000000 0.000000 0.000000 -73.425288 -10.020821 -88.771690 28.094552 -2.743550 -4.058037 -39.357994 -54.318613 71.266254 0.000000 0.000000 0.000000 9.349088 3.415783 -23.151891 5.254346 -0.297130 4.118384 -6.553480 -5.919133 33.742959 10.034474 -7.731038 -9.654947 0.000000 0.000000 0.000000 46.695518 -32.919153 -3.319252 1.313482 -49.501175 7.529335 16.395770 -2.440720 0.343689 0.000000 0.000000 0.000000 -39.109379 19.540580 12.564403 -9.648616 41.648183 -15.564624 -9.316790 10.652477 -1.630382 0.000000 0.000000 0.000000 
-18.925751 0.862787 5.917413 21.151792 -74.948208 36.102216 -13.238407 -1.151860 -37.928108 0.745629 -0.092597 -1.237557 -0.261950 6.152574 -24.982138 0.000000 0.000000 0.000000 -70.662523 -12.402316 -90.500703 38.000906 -6.152865 0.046168 -41.328492 -57.908762 63.096277 0.000000 0.000000 0.000000 11.124807 2.718752 -21.771423 5.242543 -0.125494 6.020186 -6.006460 -6.734798 31.717760 8.673268 -6.972377 -10.489173 0.000000 0.000000 0.000000 46.904901 -32.940481 -3.017188 5.797791 -48.919083 5.112755 15.526535 0.095333 0.516424 0.000000 0.000000 0.000000 -40.039419 20.357999 11.752724 -11.744322 39.849170 -14.558816 -10.429814 9.011336 -1.500930 0.000000 0.000000 0.000000 
-20.161194 0.856165 6.101214 17.745977 -70.997302 41.633902 -12.941334 -1.554500 -33.634960 4.224160 -0.549400 -2.613659 0.246331 4.585076 -19.096168 0.000000 0.000000 0.000000 -65.357912 -12.341024 -94.508945 42.666274 -9.403758 5.198996 -39.120089 -60.127421 52.560535 0.000000 0.000000 0.000000 10.956080 2.641313 -21.721092 5.773023 -0.227064 7.361098 -6.400411 -7.468294 30.664794 7.150728 -6.115888 -10.123638 0.000000 0.000000 0.000000 47.949646 -32.701163 -3.162582 4.885364 -47.913709 4.863580 17.070794 0.429214 0.686856 0.000000 0.000000 0.000000 -41.291612 21.699446 11.024751 -12.362110 40.037079 -14.530388 -9.233739 6.767520 -0.950065 0.000000 0.000000 0.000000 
-21.450527 0.844861 6.355142 18.925607 -67.046641 42.368778 -12.202460 -1.763193 -30.391032 4.839662 -0.633743 -1.946648 0.210676 1.332174 -13.092774 0.000000 0.000000 0.000000 -64.056058 -14.017184 -95.261746 49.598619 -13.596046 8.081692 -38.544473 -61.665420 43.640704 0.000000 0.000000 0.000000 10.651376 1.374493 -17.684995 4.749187 0.126731 7.703103 -5.051107 -7.844509 28.167664 5.573100 -5.150598 -11.196840 0.000000 0.000000 0.000000 47.459602 -31.160750 -2.896003 7.382297 -47.353928 3.568735 17.282078 1.640464 0.849358 0.000000 0.000000 0.000000 -41.418808 22.855233 10.682352 -13.407216 38.828476 -13.978637 -7.078546 4.288463 -0.457265 0.000000 0.000000 0.000000 
-22.745533 0.836256 6.689515 19.395732 -62.243542 44.775673 -11.370427 -1.748927 -29.751968 3.473998 -0.504390 -0.537564 1.581850 2.905033 -7.206014 0.000000 0.000000 0.000000 -58.810224 -13.344660 -97.799677 49.556679 -16.440628 14.411625 -32.057977 -60.142724 32.651012 0.000000 0.000000 0.000000 10.580650 0.257704 -13.189369 4.853178 0.341889 9.612275 -4.876824 -7.904007 23.395970 6.420561 -5.263421 -9.258799 0.000000 0.000000 0.000000 46.554021 -32.475021 -1.978773 11.059031 -44.638658 1.122061 18.753350 3.637090 1.203092 0.000000 0.000000 0.000000 -40.678062 24.572460 9.907138 -12.416506 36.939492 -11.917381 -7.304664 2.378150 -0.309149 0.000000 0.000000 0.000000 
-24.016716 0.822022 7.112792 22.704254 -56.495847 45.885137 -10.166765 -1.727306 -27.658965 0.339127 -0.011547 -1.622658 2.348872 2.548988 8.372864 0.000000 0.000000 0.000000 -54.937348 -14.089817 -99.781979 49.616125 -21.315014 23.381166 -23.961024 -57.633308 14.849811 0.000000 0.000000 0.000000 9.814191 -0.944450 -5.688549 5.172292 0.284876 10.862256 -3.909106 -6.986478 17.574561 8.559676 -6.162544 -8.695415 0.000000 0.000000 0.000000 47.389193 -31.112450 -1.602120 14.284062 -41.935303 -0.724020 20.289032 4.487734 1.480902 0.000000 0.000000 0.000000 -40.513799 23.438323 9.195756 -13.812780 33.707419 -9.997865 -7.527945 0.654192 -0.195931 0.000000 0.000000 0.000000 
-25.230856 0.811936 7.648346 24.823286 -51.756086 50.035709 -7.415374 -1.507236 -22.247640 -1.503061 0.288299 -3.610634 -2.464030 -2.523190 27.335798 0.000000 0.000000 0.000000 -49.730563 -12.894918 -102.670245 44.591516 -24.626923 35.551742 -18.254410 -55.688508 0.050303 0.000000 0.000000 0.000000 10.177220 -1.951343 3.236091 4.402105 0.525838 10.238204 -3.232862 -7.268698 10.378796 7.895740 -5.328333 -9.110438 0.000000 0.000000 0.000000 47.754021 -28.613042 -0.790846 14.547361 -39.559602 -1.186758 22.285863 6.913394 2.224345 0.000000 0.000000 0.000000 -42.980803 23.393467 9.158328 -13.708482 31.119928 -8.726768 -9.328699 0.476820 -0.250812 0.000000 0.000000 0.000000 
-26.378187 0.810090 8.252887 28.791161 -46.751469 54.077886 -3.607130 -1.289583 -15.520748 -1.384021 0.221815 0.680620 -7.629212 -3.916738 39.127930 0.000000 0.000000 0.000000 -45.867735 -13.088088 -103.418609 36.973718 -23.249784 43.447550 -14.910008 -49.954681 -3.146475 0.000000 0.000000 0.000000 12.264786 -3.305306 14.478935 3.230033 0.229396 3.231883 -3.069455 -7.846621 5.194500 8.070196 -4.860942 -5.602741 0.000000 0.000000 0.000000 46.206900 -29.214244 1.020500 14.317287 -35.665253 -1.465484 24.232333 8.895778 2.992643 0.000000 0.000000 0.000000 -41.467063 27.549327 9.696581 -16.821329 26.409318 -7.955550 -8.375408 -3.266089 0.018517 0.000000 0.000000 0.000000 
-27.464266 0.831203 8.935801 33.445301 -41.695313 61.191402 -1.481377 -1.000724 -9.847908 -1.284846 0.223744 3.636545 -4.901650 2.323542 46.328660 0.000000 0.000000 0.000000 -42.662981 -13.854674 -101.746117 28.436460 -17.415948 43.890216 -10.647314 -49.452513 -11.406266 0.000000 0.000000 0.000000 16.625981 -6.061753 26.330855 1.045720 0.006717 -10.810004 -3.286444 -7.730110 5.959835 9.531639 -4.912976 -9.727679 0.000000 0.000000 0.000000 47.682954 -24.146730 1.648843 16.640598 -34.807439 -1.773517 21.856290 10.980140 3.103016 0.000000 0.000000 0.000000 -39.500699 26.078345 10.641188 -19.545533 23.379316 -7.616737 -10.011605 -5.662324 0.174706 0.000000 0.000000 0.000000 
-28.463493 0.861432 9.734202 41.582433 -36.892493 67.884421 2.470736 -1.151645 -4.744682 -6.024166 1.403578 9.949857 -1.901534 7.652955 51.425964 0.000000 0.000000 0.000000 -43.253598 -17.451211 -93.947645 22.184921 -10.169627 32.445522 -12.720136 -47.857410 1.473683 0.000000 0.000000 0.000000 20.917125 -9.691250 29.802929 -1.372097 0.429752 -18.188074 -5.268241 -11.773674 10.999347 9.575147 -4.009938 -23.697242 0.000000 0.000000 0.000000 51.391826 -14.603821 0.237975 17.516583 -34.918023 -0.931870 21.526025 10.704141 3.343838 0.000000 0.000000 0.000000 -41.775791 16.834628 11.083071 -20.797348 22.575385 -7.495451 -11.674250 -7.522007 0.182759 0.000000 0.000000 0.000000 
-29.426840 0.915752 10.662503 48.591901 -34.034146 75.286902 9.724268 -2.554665 2.538327 -10.047620 2.939163 15.381294 3.766981 12.702606 53.599902 0.000000 0.000000 0.000000 -48.283791 -22.284302 -84.588495 12.978302 -3.919681 19.565172 -14.826491 -36.083783 26.698976 0.000000 0.000000 0.000000 26.598724 -14.538127 30.044224 -1.188174 0.427375 -21.618354 -8.555828 -12.321860 11.640454 9.068866 -3.348030 -27.285996 0.000000 0.000000 0.000000 49.019912 -11.889542 0.240093 22.284481 -31.189923 -1.143494 16.702677 9.264738 2.282955 0.000000 0.000000 0.000000 -42.457834 9.567729 11.561412 -24.416598 20.276467 -7.198996 -10.122007 -9.040946 0.204305 0.000000 0.000000 0.000000 
-30.268072 0.968106 11.636565 46.128500 -31.251701 88.290849 18.013981 -5.726437 11.937200 -15.663414 5.629796 20.460679 17.776048 21.921270 51.932710 0.000000 0.000000 0.000000 -43.234680 -19.445146 -80.901673 2.642488 -0.208563 10.947885 -11.365571 -27.315960 33.754231 0.000000 0.000000 0.000000 26.417570 -17.139671 32.189925 -2.039662 0.705647 -24.854174 -5.570441 -10.173208 14.464370 7.994000 -1.937519 -35.986681 0.000000 0.000000 0.000000 51.380736 -5.934873 0.225472 21.657906 -30.547824 -1.098360 14.105661 11.671360 2.147658 0.000000 0.000000 0.000000 -45.531232 1.526941 10.725281 -24.655944 20.824588 -6.428297 -12.880169 -8.487942 0.282319 0.000000 0.000000 0.000000 
-30.974421 1.013071 12.613976 42.155629 -30.826502 98.466661 21.541032 -8.118642 22.236622 -17.082306 6.831317 20.974870 18.650832 21.681337 37.690657 0.000000 0.000000 0.000000 -40.675972 -12.331780 -75.113823 2.481251 -0.275338 12.604458 -11.567637 -31.123138 31.951525 0.000000 0.000000 0.000000 24.477796 -17.886329 35.185592 -2.642936 0.865871 -26.669795 -5.359403 -8.724662 15.363627 6.825740 -0.988954 -40.225509 0.000000 0.000000 0.000000 51.103690 -2.663393 0.123566 24.196712 -27.807861 -0.802726 7.907416 12.246528 1.146674 0.000000 0.000000 0.000000 -46.404138 -3.097057 10.693813 -24.882013 20.187923 -5.847637 -12.762476 -9.056243 0.309667 0.000000 0.000000 0.000000 
